<?xml version="1.0" encoding="UTF-8"?>
<!DOCTYPE svg PUBLIC "-//W3C//DTD SVG 1.1//EN" "http://www.w3.org/Graphics/SVG/1.1/DTD/svg11.dtd">
<!-- Creator: CorelDRAW -->
<svg xmlns="http://www.w3.org/2000/svg" xml:space="preserve" width="2048px" height="2048px" style="shape-rendering:geometricPrecision; text-rendering:geometricPrecision; image-rendering:optimizeQuality; fill-rule:evenodd; clip-rule:evenodd"
viewBox="0 0 2048 2048"
 xmlns:xlink="http://www.w3.org/1999/xlink">
 <defs>
  <style type="text/css">
   <![CDATA[
    .fil1 {fill:none}
    .fil0 {fill:#212121;fill-rule:nonzero}
   ]]>
  </style>
 </defs>
 <g id="Layer_x0020_1">
  <metadata id="CorelCorpID_0Corel-Layer"/>
  <path class="fil0" d="M671.999 255.998l704.001 0c44.0327,0 84.0414,17.9917 113.026,46.9748 28.9831,28.9843 46.9748,68.993 46.9748,113.026l0 95.9977c0,17.6728 -14.328,32.0008 -32.0008,32.0008l-16.0618 0 0 960 16.0618 0c17.6728,0 32.0008,14.328 32.0008,32.0008l0 96.0024c0,44.0327 -17.9917,84.0414 -46.9748,113.026 -28.9843,28.9831 -68.993,46.9748 -113.026,46.9748l-704.001 0c-44.0327,0 -84.0414,-17.9917 -113.026,-46.9748 -28.9831,-28.9843 -46.9748,-68.993 -46.9748,-113.026l0 -96.0024c0,-17.6728 14.328,-32.0008 32.0008,-32.0008l16.0606 0 0 -960 -16.0606 0c-17.6728,0 -32.0008,-14.328 -32.0008,-32.0008l0 -95.9977c0,-44.0327 17.9917,-84.0414 46.9748,-113.026 28.9843,-28.9831 68.993,-46.9748 113.026,-46.9748zm704.001 64.0016l-704.001 0c-26.3669,0 -50.3611,10.8095 -67.7752,28.2236 -17.4142,17.4142 -28.2236,41.4083 -28.2236,67.7752l0 63.9969 16.0606 0c17.6728,0 32.0008,14.328 32.0008,32.0008l0 1024c0,17.6728 -14.328,32.0008 -32.0008,32.0008l-16.0606 0 0 64.0016c0,26.3669 10.8095,50.3611 28.2236,67.7752 17.4142,17.4142 41.4083,28.2236 67.7752,28.2236l704.001 0c26.3669,0 50.3611,-10.8095 67.7752,-28.2236 17.4142,-17.4142 28.2236,-41.4083 28.2236,-67.7752l0 -64.0016 -16.0618 0c-17.6728,0 -32.0008,-14.328 -32.0008,-32.0008l0 -1024c0,-17.6728 14.328,-32.0008 32.0008,-32.0008l16.0618 0 0 -63.9969c0,-26.3669 -10.8095,-50.3611 -28.2236,-67.7752 -17.4142,-17.4142 -41.4083,-28.2236 -67.7752,-28.2236z"/>
  <path class="fil0" d="M550.966 479.998c-17.6728,0 -32.0008,14.328 -32.0008,32.0008 0,17.6728 14.328,32.0008 32.0008,32.0008l473.801 0 472.269 0c17.6728,0 32.0008,-14.328 32.0008,-32.0008 0,-17.6728 -14.328,-32.0008 -32.0008,-32.0008l-472.269 0 -473.801 0z"/>
  <path class="fil0" d="M550.966 1504c-17.6728,0 -32.0008,14.328 -32.0008,32.0008 0,17.6728 14.328,32.0008 32.0008,32.0008l473.801 0 472.269 0c17.6728,0 32.0008,-14.328 32.0008,-32.0008 0,-17.6728 -14.328,-32.0008 -32.0008,-32.0008l-472.269 0 -473.801 0z"/>
  <path class="fil0" d="M895.999 367.998c-17.6728,0 -32.0008,14.328 -32.0008,32.0008 0,17.6728 14.328,32.0008 32.0008,32.0008l256.002 0c17.6728,0 32.0008,-14.328 32.0008,-32.0008 0,-17.6728 -14.328,-32.0008 -32.0008,-32.0008l-256.002 0z"/>
  <path class="fil0" d="M971.672 1616c-17.6728,0 -32.0008,14.328 -32.0008,32.0008 0,17.6728 14.328,32.0008 32.0008,32.0008l104.655 0c17.6728,0 32.0008,-14.328 32.0008,-32.0008 0,-17.6728 -14.328,-32.0008 -32.0008,-32.0008l-104.655 0z"/>
  <path class="fil0" d="M1024 622.529c57.6898,0 109.924,23.387 147.734,61.1965 37.8095,37.8095 61.1965,90.0438 61.1965,147.734 0,57.6886 -23.387,109.923 -61.1965,147.734 -37.8095,37.8095 -90.0438,61.1965 -147.734,61.1965 -57.6898,0 -109.924,-23.387 -147.734,-61.1965 -37.8095,-37.8107 -61.1965,-90.045 -61.1965,-147.734 0,-57.6898 23.387,-109.924 61.1965,-147.734 37.8095,-37.8095 90.0438,-61.1965 147.734,-61.1965zm102.483 106.447c-26.224,-26.224 -62.4579,-42.4453 -102.483,-42.4453 -40.0252,0 -76.2591,16.2213 -102.483,42.4453 -26.224,26.224 -42.4453,62.4579 -42.4453,102.483 0,40.024 16.2213,76.2579 42.4453,102.483 26.224,26.224 62.4579,42.4453 102.483,42.4453 40.0252,0 76.2591,-16.2213 102.483,-42.4453 26.224,-26.2252 42.4453,-62.4591 42.4453,-102.483 0,-40.0252 -16.2213,-76.2591 -42.4453,-102.483z"/>
  <path class="fil0" d="M977.867 1040.49l92.2654 0c82.6442,0 157.755,33.7878 212.188,88.2201 54.4323,54.4323 88.2201,129.543 88.2201,212.188l0 67.1032c0,17.6728 -14.328,32.0008 -32.0008,32.0008l-629.079 0c-17.6728,0 -32.0008,-14.328 -32.0008,-32.0008l0 -67.1032c0,-82.6442 33.7878,-157.755 88.2201,-212.188 54.4323,-54.4323 129.543,-88.2201 212.188,-88.2201zm92.2654 64.0016l-92.2654 0c-64.9784,0 -124.075,26.6067 -166.937,69.469 -42.8622,42.8622 -69.469,101.959 -69.469,166.937l0 35.1024 565.078 0 0 -35.1024c0,-64.9784 -26.6067,-124.075 -69.469,-166.937 -42.8622,-42.8622 -101.959,-69.469 -166.937,-69.469z"/>
 </g>
 <rect class="fil1" width="2048" height="2048"/>
</svg>
