<svg xmlns="http://www.w3.org/2000/svg" viewBox="0 0 48 48"><defs><style>.cls-1{fill:#7c7d7d;}.cls-2{fill:#919191;}.cls-3{fill:#dad7e5;}.cls-4{fill:#edebf2;}.cls-5{fill:#9fdbf3;}.cls-6{fill:#b2e5fb;}.cls-7{fill:#c6c3d8;}.cls-8{fill:#8bd1ea;}.cls-9{fill:#fc6;}.cls-10{fill:#ffde76;}</style></defs><title>Dashboard</title><g id="Dashboard"><rect class="cls-1" x="6" y="31" width="36" height="16"/><path class="cls-2" d="M42,31V45H11a3,3,0,0,1-3-3V31Z"/><path class="cls-3" d="M18,36v3H12V36a1,1,0,0,1,1-1h4A1,1,0,0,1,18,36Z"/><path class="cls-4" d="M18,36v1H16a2,2,0,0,1-2-2h3A1,1,0,0,1,18,36Z"/><path class="cls-3" d="M18,39v3a1,1,0,0,1-1,1H13a1,1,0,0,1-1-1V39Z"/><path class="cls-4" d="M18,39v2H15a1,1,0,0,1-1-1V39Z"/><path class="cls-4" d="M38,40H36a1,1,0,0,1,0-2h2A1,1,0,0,1,38,40Z"/><path class="cls-4" d="M38,44H36a1,1,0,0,1,0-2h2A1,1,0,0,1,38,44Z"/><path class="cls-4" d="M32,40H30a1,1,0,0,1,0-2h2A1,1,0,0,1,32,40Z"/><path class="cls-4" d="M32,44H30a1,1,0,0,1,0-2h2A1,1,0,0,1,32,44Z"/><path class="cls-4" d="M26,40H24a1,1,0,0,1,0-2h2A1,1,0,0,1,26,40Z"/><path class="cls-4" d="M26,44H24a1,1,0,0,1,0-2h2A1,1,0,0,1,26,44Z"/><path class="cls-4" d="M38,36H36a1,1,0,0,1,0-2h2A1,1,0,0,1,38,36Z"/><path class="cls-4" d="M32,36H30a1,1,0,0,1,0-2h2A1,1,0,0,1,32,36Z"/><path class="cls-4" d="M26,36H24a1,1,0,0,1,0-2h2A1,1,0,0,1,26,36Z"/><rect class="cls-1" x="6" y="1" width="36" height="30"/><path class="cls-2" d="M42,1V29H11a3,3,0,0,1-3-3V1Z"/><rect class="cls-5" x="10" y="5" width="14" height="10"/><path class="cls-6" d="M24,5v8H15a3,3,0,0,1-3-3V5Z"/><path class="cls-4" d="M29,15V5a1,1,0,0,1,2,0V15A1,1,0,0,1,29,15Z"/><path class="cls-7" d="M31,14H29a1,1,0,0,1,0-2h2A1,1,0,0,1,31,14Z"/><path class="cls-4" d="M35,15V5a1,1,0,0,1,2,0V15A1,1,0,0,1,35,15Z"/><path class="cls-7" d="M37,10H35a1,1,0,0,1,0-2h2A1,1,0,0,1,37,10Z"/><path class="cls-8" d="M24,9.5v2c-2.08,0-2.17-1.7-3.62-.69a3.17,3.17,0,0,1-4,0,1.2,1.2,0,0,0-1.63,0,3.16,3.16,0,0,1-4,0A1.18,1.18,0,0,0,10,10.5v-2c1.67,0,1.93,1,2.8,1s1.15-1,2.8-1,1.94,1,2.79,1,1.15-1,2.81-1S23.14,9.5,24,9.5Z"/><path class="cls-9" d="M14,23a2,2,0,1,1-2.82-1.82A2,2,0,0,1,14,23Z"/><path class="cls-10" d="M13.82,23.82a2,2,0,0,1-2.64-2.64A2,2,0,0,1,13.82,23.82Z"/><circle class="cls-9" cx="20" cy="23" r="2"/><circle class="cls-9" cx="28" cy="23" r="2"/><circle class="cls-9" cx="36" cy="23" r="2"/><path class="cls-10" d="M21.82,23.82a2,2,0,0,1-2.64-2.64A2,2,0,0,1,21.82,23.82Z"/><path class="cls-10" d="M29.82,23.82a2,2,0,0,1-2.64-2.64A2,2,0,0,1,29.82,23.82Z"/><path class="cls-10" d="M37.82,23.82a2,2,0,0,1-2.64-2.64A2,2,0,0,1,37.82,23.82Z"/></g></svg>